<?xml version="1.0" encoding="utf-8"?>
<!-- Generator: Adobe Illustrator 18.1.0, SVG Export Plug-In . SVG Version: 6.00 Build 0)  -->
<!DOCTYPE svg PUBLIC "-//W3C//DTD SVG 1.0//EN" "http://www.w3.org/TR/2001/REC-SVG-20010904/DTD/svg10.dtd">
<svg version="1.0" id="Calque_1" xmlns="http://www.w3.org/2000/svg" xmlns:xlink="http://www.w3.org/1999/xlink" x="0px" y="0px"
	 viewBox="0 0 74.5 65.188" enable-background="new 0 0 74.5 65.188" xml:space="preserve">
<radialGradient id="SVGID_1_" cx="35.25" cy="32.5938" r="65.881" gradientTransform="matrix(0.5 0 0 0.3874 19.625 19.967)" gradientUnits="userSpaceOnUse">
	<stop  offset="0" style="stop-color:#000000;stop-opacity:0.9"/>
	<stop  offset="0.5" style="stop-color:#000000;stop-opacity:0.7"/>
	<stop  offset="1" style="stop-color:#070000;stop-opacity:0"/>
</radialGradient>
<ellipse display="none" fill="url(#SVGID_1_)" cx="37.25" cy="32.594" rx="38.562" ry="33.75"/>
<path fill="#FFFFFF" d="M46.959,36.802c-0.434,0-0.682,0.081-1.069,0.223c-0.563-1.278-1.757-2.176-3.236-2.176
	c-0.777,0-1.455,0.25-2.047,0.67c-0.661-0.91-1.622-1.507-2.826-1.507c-0.799,0-2.039,1.014-2.039,1.457l-0.496-8.583
	c0-1.995-1.383-3.289-3.378-3.289s-3.119,1.612-3.119,3.607l0.667,16.974l-1.345-1.616c-1.253-1.552-3.655-2.297-5.207-1.043
	c-1.552,1.253-0.85,4.048,0.403,5.601l7.036,10.102c0.448,0.555,2.02,2.373,5.832,2.373h5.975c8.64,0,8.14-10.411,8.14-10.411
	v-5.591v-3.162C50.25,38.434,48.954,36.802,46.959,36.802z"/>
<polygon opacity="0.6" fill="#FFFFFF" points="66.75,34.594 58.25,26.557 58.25,30.594 50.25,30.594 50.25,39.594 58.25,39.594 
	58.25,42.631 "/>
<polygon opacity="0.6" fill="#FFFFFF" points="6.75,34.594 15.25,42.631 15.25,39.594 24.25,39.594 24.25,30.594 15.25,30.594 
	15.25,26.557 "/>
</svg>
