<?xml version="1.0" encoding="utf-8"?>
<!-- Generator: Adobe Illustrator 21.0.0, SVG Export Plug-In . SVG Version: 6.00 Build 0)  -->
<svg version="1.1" id="Calque_1" xmlns="http://www.w3.org/2000/svg" xmlns:xlink="http://www.w3.org/1999/xlink" x="0px" y="0px"
	 viewBox="0 0 14 14" style="enable-background:new 0 0 14 14;" xml:space="preserve">
<path fill="#FF9E3A" d="M13.7,4.8l-2.1-1.1l-0.4-2.4L8.7,1.7L7,0L5.3,1.7L2.9,1.3L2.5,3.7L0.3,4.8L1.4,7L0.3,9.2l2.1,1.1l0.4,2.4l2.4-0.3L7,14
	l1.7-1.7l2.4,0.3l0.4-2.4l2.1-1.1L12.6,7L13.7,4.8z M6.6,10.6L3.9,9V5.9l2.7,1.5V10.6z M7,6.7L3.9,5L7,3.2L10.1,5L7,6.7z M10.2,9
	l-2.7,1.6V7.3l2.7-1.5V9z"/>
</svg>
