<svg xmlns="http://www.w3.org/2000/svg" viewBox="0 0 585.12 118.78"><title>sketchfab-logo-white</title><path d="M245.29,94.9q-11.19,0-11.19,7.39a5.6,5.6,0,0,0,2.77,5q2.77,1.75,13,5t14.32,7.44q4.11,4.16,4.11,12.78,0,11-6.67,16.63t-17.46,5.65a97.15,97.15,0,0,1-19.61-2.46l-3.7-.72,1.44-11a170.91,170.91,0,0,0,21.05,1.85q10.88,0,10.88-9a6,6,0,0,0-2.52-5.13q-2.52-1.85-10-4-11.91-3.39-16.79-8.06t-4.88-13q0-10.47,6.37-15.61t17.45-5.13a116.15,116.15,0,0,1,19.3,2.05l3.7,0.72-1.13,11.19Q251.24,94.9,245.29,94.9Z" transform="translate(-72.33 -58.49)" fill="#fff"/><path d="M292.21,153.63H278.45V81.76h13.76v40.87l5.24-.92,10.17-19.41H323l-13.35,24.34,14.07,27H308.23l-10.37-20-5.65.92v19.1Z" transform="translate(-72.33 -58.49)" fill="#fff"/><path d="M344.22,140.65q2.41,2.1,6.93,2.1,9.55,0,17-.62l2.87-.31L371.28,152a91.17,91.17,0,0,1-21.36,2.88q-11.6,0-16.84-6.16t-5.24-20q0-27.62,22.69-27.62,22.39,0,22.38,23.21l-1,9.55H341.71Q341.8,138.54,344.22,140.65Zm15.14-17.3q0-6.16-2-8.57t-6.83-2.41q-4.88,0-6.88,2.51t-2.1,8.47h17.76Z" transform="translate(-72.33 -58.49)" fill="#fff"/><path d="M411.22,114H398.59v21a42.38,42.38,0,0,0,.15,4.37,3.54,3.54,0,0,0,1.13,2.21,4.27,4.27,0,0,0,3,.93l7.8-.21,0.62,11a52.18,52.18,0,0,1-10.47,1.54q-9.24,0-12.63-4.16t-3.39-15.35V114h-6.06V102.29h6.06V88h13.76v14.27h12.63V114Z" transform="translate(-72.33 -58.49)" fill="#fff"/><path d="M439.36,101.06A73.47,73.47,0,0,1,453,102.7l2.77,0.62-0.41,10.88q-8.11-.82-12-0.82-7.09,0-9.4,3t-2.31,11.45q0,8.42,2.31,11.55t9.5,3.13l11.91-.82,0.41,11A94.55,94.55,0,0,1,439,154.87q-11.4,0-16.38-6.42t-5-20.59q0-14.17,5.13-20.48T439.36,101.06Z" transform="translate(-72.33 -58.49)" fill="#fff"/><path d="M479.71,153.63H465.95V81.76h13.76v23q7.09-3.7,12.73-3.7,10.27,0,14.17,6.06t3.9,18.69v27.83H496.75V126.12q0-6.47-1.54-9.6t-6.16-3.13a27.15,27.15,0,0,0-8,1.23l-1.34.41v38.61Z" transform="translate(-72.33 -58.49)" fill="#fff"/><path d="M539,114v39.63H525.2V114h-5.54V102.29h5.54V100q0-11.09,3.29-15.3t11.7-4.21a57.93,57.93,0,0,1,9.55,1l2.16,0.31-0.21,11.19q-4.52-.2-7.6-0.2T540,94.49q-1,1.65-1,5.65v2.16h12.42V114H539Z" transform="translate(-72.33 -58.49)" fill="#fff"/><path d="M598.71,118.31v21.36a8.19,8.19,0,0,0,.82,3.44,3.81,3.81,0,0,0,2.57,1.39l-0.41,10.37a39,39,0,0,1-8.37-.72,18.84,18.84,0,0,1-6.31-2.88,34.2,34.2,0,0,1-15.1,3.59Q556,154.87,556,138q0-8.21,4.41-11.65T574,122.32l11-.82v-3.18q0-3.18-1.44-4.36a7.27,7.27,0,0,0-4.62-1.18l-19.3.82L559.18,104a80,80,0,0,1,20.89-3q9.91,0,14.27,4.11T598.71,118.31Zm-23.1,13.55q-5.75.52-5.75,6.16t5,5.65a33.19,33.19,0,0,0,8.52-1.23L585,142V131Z" transform="translate(-72.33 -58.49)" fill="#fff"/><path d="M636.71,101.06q10.78,0,15.76,5.9t5,21.1q0,15.2-5.75,21t-19.82,5.8q-4.42,0-16.12-1l-3.9-.41V81.76h13.76v22.08Q632.19,101.06,636.71,101.06Zm-4.83,41.48q6.88,0,9.24-3.34t2.36-12q0-13.86-8.62-13.86a29.05,29.05,0,0,0-7.8,1l-1.44.31v27.42Q630.34,142.54,631.88,142.55Z" transform="translate(-72.33 -58.49)" fill="#fff"/><path d="M131.72,58.49a59.39,59.39,0,1,0,59.39,59.39A59.39,59.39,0,0,0,131.72,58.49ZM161,99.76l-29.26,17.92L102.46,99.76l29.26-17.92Zm-59.43,7.65,26.68,16.34v29.89l-26.68-16.34V107.4Zm33.68,46.23V123.74L161.9,107.4v29.89Z" transform="translate(-72.33 -58.49)" fill="#fff"/></svg>